# xmcd
#
# Track frame offsets:
# 150
# 16755
# 34337
# 50510
# 60452
# 84025
# 102595
# 114204
# 137105
# 148690
# 166342
# 183784
# 200427
# 213417
# 234484
# 252402
# 265562
# 278822
#
# Disc length: 3952 seconds
#
# Revision: 0
# Processed by: cddbd v1.5.1PL0 Copyright (c) Steve Scherf et al.
# Submitted via: Axialis_AX_CDPlayer 2.6
#
DISCID=f30f6e12
DTITLE=Various Artist - Duets [Disc Two]
DYEAR=1900
DGENRE=
TTITLE0=Mike Reno and Ann Wilson - Almost Paradise
TTITLE1=Eddie Money and Valerie Carter - Let's Be Lovers Again
TTITLE2=Patti Austin and James Ingram - Baby, Come To Me
TTITLE3=Kristy and Jimmy McNichol - He's So Fine
TTITLE4=Stan Getz and Astrud Gilberto - The Girl From Ipanema
TTITLE5=Andy Gibb and Olivia Newton John - I Can't Help It
TTITLE6=Bobbie Gentry and Glen Campbell - All I Have To Do Is Dream
TTITLE7=Teddy Pendergrass and Lisa Fisher - Glad To Be Alive
TTITLE8=Odia Coates and Paul Anka - (You're) Having My Baby
TTITLE9=Dan Hill and Vonda Sheppard - Can't We Try
TTITLE10=Marilyn Mccoo and Billy Davis, Jr - You Don't Have To Be A Star (To B
TTITLE10=e In \nMy Show)
TTITLE11=Rex and Rachel Sweet Smith - Everlasting Love
TTITLE12=Tammy Wynette and David Houston - My Elusive Dreams
TTITLE13=Dionne Warwick and Glenn Jones - Finder Of Lost Loves
TTITLE14=Peaches and Herb - Reunited
TTITLE15=Willie Nelson and Brenda Lee - You're Gonna Love Yourself In The Morn
TTITLE15=ing
TTITLE16=Johnny Mathis and Jane Olivor - The Last Time I Felt Like This
TTITLE17=Joe Cocker and Jennifer Warnes - Up Where We Belong (Love Theme From 
TTITLE17='An \nOfficer And A Gentleman')
EXTD=
EXTT0=
EXTT1=
EXTT2=
EXTT3=
EXTT4=
EXTT5=
EXTT6=
EXTT7=
EXTT8=
EXTT9=
EXTT10=
EXTT11=
EXTT12=
EXTT13=
EXTT14=
EXTT15=
EXTT16=
EXTT17=
PLAYORDER=
